<svg id="visual" viewBox="0 0 900 600" width="900" height="600" xmlns="http://www.w3.org/2000/svg" xmlns:xlink="http://www.w3.org/1999/xlink" version="1.1">
  <rect x="0" y="0" width="900" height="600" fill="#fff"></rect>
  <defs>
    <linearGradient id="grad1_0" x1="33.3%" y1="0%" x2="100%" y2="100%">
      <stop offset="20%" stop-color="#ffffff" stop-opacity="1"></stop>
      <stop offset="80%" stop-color="#ffffff" stop-opacity="1"></stop>
    </linearGradient>
    <linearGradient id="grad2_0" x1="0%" y1="0%" x2="66.7%" y2="100%">
      <stop offset="20%" stop-color="#ffffff" stop-opacity="1"></stop>
      <stop offset="80%" stop-color="#ffffff" stop-opacity="1"></stop>
    </linearGradient>
    <clipPath id="blobClip">
      <path d="M0 432.7C-86.8 427.8 -173.5 422.9 -216.3 374.7C-259.1 326.5 -257.9 235.2 -286.7 165.5C-315.4 95.8 -374 47.9 -432.7 0L0 0Z" transform="translate(900, 0)" />
      <path d="M0 -432.7C80.2 -424 160.4 -415.3 216.3 -374.7C272.3 -334.1 304 -261.8 336 -194C368 -126.2 400.4 -63.1 432.7 0L0 0Z" transform="translate(0, 600)" />
    </clipPath>
  </defs>
  <g>
    <image href="./imageAbout.jpeg" width="900" height="600" clip-path="url(#blobClip)" preserveAspectRatio="xMidYMid slice" />
  </g>
  <g transform="translate(900, 0)">
    <path d="M0 432.7C-86.8 427.8 -173.5 422.9 -216.3 374.7C-259.1 326.5 -257.9 235.2 -286.7 165.5C-315.4 95.8 -374 47.9 -432.7 0L0 0Z" fill="#CBB88F"></path>
  </g>
  <g transform="translate(0, 600)">
    <path d="M0 -432.7C80.2 -424 160.4 -415.3 216.3 -374.7C272.3 -334.1 304 -261.8 336 -194C368 -126.2 400.4 -63.1 432.7 0L0 0Z" fill="#CBB88F"></path>
  </g>
</svg>
