<svg xmlns="http://www.w3.org/2000/svg" xmlns:xlink="http://www.w3.org/1999/xlink" width="500" zoomAndPan="magnify" viewBox="0 0 375 374.999991" height="500" preserveAspectRatio="xMidYMid meet" version="1.0"><defs><clipPath id="c4799d8414"><path d="M 95 232 L 171 232 L 171 254.855469 L 95 254.855469 Z M 95 232 " clip-rule="nonzero"/></clipPath><clipPath id="4101e59f3b"><path d="M 91.207031 163 L 186 163 L 186 249 L 91.207031 249 Z M 91.207031 163 " clip-rule="nonzero"/></clipPath><clipPath id="dbf1b5c32d"><path d="M 204 232 L 280 232 L 280 254.855469 L 204 254.855469 Z M 204 232 " clip-rule="nonzero"/></clipPath><clipPath id="25f217a079"><path d="M 189 163 L 283.957031 163 L 283.957031 249 L 189 249 Z M 189 163 " clip-rule="nonzero"/></clipPath><clipPath id="4ce3315bbb"><path d="M 155 119.921875 L 220 119.921875 L 220 228 L 155 228 Z M 155 119.921875 " clip-rule="nonzero"/></clipPath></defs><g clip-path="url(#c4799d8414)"><path fill="#ffffff" d="M 95.273438 234.863281 C 116.574219 248.121094 142.484375 254.992188 167.554688 255.097656 C 168.40625 255.117188 169.292969 255.121094 170.226562 255.105469 C 150.683594 252.074219 136.347656 237.785156 118.941406 233.496094 C 111.363281 231.632812 104.226562 235.105469 95.273438 234.863281 " fill-opacity="1" fill-rule="nonzero"/></g><path fill="#ffffff" d="M 148.667969 191.109375 C 148.824219 187.375 149.371094 183.457031 150.261719 179.804688 C 134.816406 166.929688 120.914062 156.207031 110.425781 138.378906 C 108.996094 169.988281 122.101562 181.988281 148.667969 191.109375 " fill-opacity="1" fill-rule="nonzero"/><g clip-path="url(#4101e59f3b)"><path fill="#ffffff" d="M 184.347656 245.113281 C 172.683594 195.28125 120.4375 199.621094 91.300781 163.761719 C 91.300781 212.417969 138.910156 248.1875 185.035156 248.1875 C 183.089844 238.019531 183.691406 241.730469 184.347656 245.113281 " fill-opacity="1" fill-rule="nonzero"/></g><g clip-path="url(#dbf1b5c32d)"><path fill="#ffffff" d="M 256.050781 233.496094 C 238.644531 237.785156 224.308594 252.074219 204.765625 255.105469 C 205.699219 255.121094 206.585938 255.117188 207.4375 255.097656 C 232.507812 254.992188 258.417969 248.121094 279.71875 234.863281 C 270.765625 235.105469 263.628906 231.632812 256.050781 233.496094 " fill-opacity="1" fill-rule="nonzero"/></g><path fill="#ffffff" d="M 226.324219 191.109375 C 252.890625 181.988281 265.996094 169.988281 264.566406 138.378906 C 254.078125 156.207031 240.175781 166.929688 224.730469 179.804688 C 225.621094 183.457031 226.167969 187.375 226.324219 191.109375 " fill-opacity="1" fill-rule="nonzero"/><g clip-path="url(#25f217a079)"><path fill="#ffffff" d="M 283.691406 163.761719 C 254.554688 199.621094 202.308594 195.28125 190.644531 245.113281 C 191.296875 241.730469 191.902344 238.019531 189.957031 248.1875 C 236.082031 248.1875 283.691406 212.417969 283.691406 163.761719 " fill-opacity="1" fill-rule="nonzero"/></g><g clip-path="url(#4ce3315bbb)"><path fill="#ffffff" d="M 217.382812 194.785156 C 227.449219 173.070312 189.324219 142.152344 187.496094 119.84375 C 185.667969 142.152344 147.542969 173.070312 157.609375 194.785156 C 162.527344 205.359375 180.683594 214.886719 187.496094 227.566406 C 194.308594 214.886719 212.464844 205.359375 217.382812 194.785156 " fill-opacity="1" fill-rule="nonzero"/></g></svg>