<svg xmlns="http://www.w3.org/2000/svg" xmlns:xlink="http://www.w3.org/1999/xlink" width="500" zoomAndPan="magnify" viewBox="0 0 375 374.999991" height="500" preserveAspectRatio="xMidYMid meet" version="1.0"><path fill="#ffffff" d="M 192.488281 223.925781 C 194.359375 223.652344 196.238281 223.230469 198.121094 222.644531 C 201.265625 233.292969 213.335938 235.046875 214.148438 220.359375 C 230.402344 238.445312 194.917969 253.007812 192.488281 223.925781 Z M 173.585938 216.714844 C 175.546875 223.976562 199.84375 224.9375 201.492188 216.375 C 202.226562 212.796875 201.609375 211.433594 199.640625 212.289062 C 191.742188 214.453125 183.765625 214.648438 175.878906 212.289062 C 173.167969 211.230469 172.402344 212.699219 173.585938 216.714844 Z M 191.164062 224.09375 C 188.746094 224.347656 186.324219 224.339844 183.914062 224.0625 C 183.160156 234.714844 178.839844 240.132812 172.039062 248.644531 C 175.539062 249.363281 178.710938 248.195312 181.582031 245.160156 C 181.972656 250.195312 183.945312 255.476562 187.5 260.980469 C 190.703125 256.09375 192.527344 250.878906 192.976562 245.335938 C 195.835938 248.039062 198.964844 249 202.332031 248.226562 C 194.976562 240.957031 191.773438 234.058594 191.164062 224.09375 Z M 182.484375 223.867188 C 180.121094 253.203125 144.722656 238.300781 160.820312 220.410156 C 161.625 235.105469 173.824219 233.429688 176.898438 222.515625 C 178.761719 223.125 180.621094 223.585938 182.484375 223.867188 Z M 176.234375 210.417969 C 168.777344 189.890625 131.136719 187.929688 141.058594 216.414062 C 112.46875 207.839844 116.164062 168.824219 150.308594 171.167969 C 170.675781 174.28125 179.386719 194.113281 181.933594 211.738281 C 180.042969 211.445312 178.132812 211.003906 176.234375 210.417969 Z M 183.484375 211.953125 C 176.398438 159.46875 148.957031 176.742188 187.324219 114.019531 C 226.582031 178.476562 198.226562 159.800781 191.566406 212.011719 C 188.871094 212.289062 186.175781 212.269531 183.484375 211.953125 Z M 193.007812 211.835938 C 195.503906 194.183594 204.261719 174.234375 224.652344 171.128906 C 258.804688 168.796875 262.5 207.800781 233.902344 216.375 C 243.855469 187.804688 205.96875 189.839844 198.640625 210.613281 C 196.769531 211.160156 194.886719 211.574219 193.007812 211.835938 Z M 193.007812 211.835938 " fill-opacity="1" fill-rule="evenodd"/></svg>